<svg xmlns="http://www.w3.org/2000/svg" width="43.952" height="43.952" viewBox="1658 2628.048 43.952 43.952"><g data-name="facebook (2)"><path d="M1683.52 2671.714Zm0 0" fill="#f8f8f8" fill-rule="evenodd" data-name="Path 7"/><path d="m1683.96 2671.639-.263.046.262-.046Zm0 0" fill="#f8f8f8" fill-rule="evenodd" data-name="Path 8"/><path d="M1682.477 2671.857Zm0 0" fill="#f8f8f8" fill-rule="evenodd" data-name="Path 9"/><path d="M1682.9 2671.806Zm0 0" fill="#f8f8f8" fill-rule="evenodd" data-name="Path 10"/><path d="M1684.557 2671.52Zm0 0" fill="#f8f8f8" fill-rule="evenodd" data-name="Path 11"/><path d="m1686.042 2671.151-.187.052.187-.052Zm0 0" fill="#f8f8f8" fill-rule="evenodd" data-name="Path 12"/><path d="m1685.593 2671.274-.204.053.204-.053Zm0 0" fill="#f8f8f8" fill-rule="evenodd" data-name="Path 13"/><path d="M1685.006 2671.42c-.072.018-.144.033-.217.05.073-.017.145-.032.217-.05Zm0 0" fill="#f8f8f8" fill-rule="evenodd" data-name="Path 14"/><path d="M1681.824 2671.922Zm0 0" fill="#f8f8f8" fill-rule="evenodd" data-name="Path 15"/><path d="M1701.952 2650.024c0-12.135-9.84-21.976-21.976-21.976-12.135 0-21.976 9.84-21.976 21.976 0 12.135 9.84 21.976 21.976 21.976.13 0 .258-.003.386-.005v-17.108h-4.721v-5.502h4.721v-4.05c0-4.695 2.867-7.251 7.056-7.251 2.006 0 3.73.15 4.233.216v4.908h-2.889c-2.278 0-2.72 1.083-2.72 2.672v3.505h5.45l-.71 5.502h-4.74v16.264c9.186-2.633 15.91-11.096 15.91-21.127Zm0 0" fill="#f8f8f8" fill-rule="evenodd" data-name="Path 16"/><path d="M1681.428 2671.951Zm0 0" fill="#f8f8f8" fill-rule="evenodd" data-name="Path 17"/><path d="M1680.728 2671.986Zm0 0" fill="#f8f8f8" fill-rule="evenodd" data-name="Path 18"/></g></svg>