<svg xmlns="http://www.w3.org/2000/svg" width="43.952" height="43.952" viewBox="1736.048 2628.048 43.952 43.952"><g data-name="instagram (1)"><path d="M1762.23 2650.024a4.206 4.206 0 1 1-8.412 0 4.206 4.206 0 0 1 8.412 0Zm0 0" fill="#f8f8f8" fill-rule="evenodd" data-name="Path 19"/><path d="M1767.861 2642.581a3.91 3.91 0 0 0-.944-1.45 3.907 3.907 0 0 0-1.45-.944c-.445-.173-1.113-.379-2.344-.435-1.33-.06-1.73-.073-5.1-.073-3.369 0-3.768.012-5.098.073-1.23.056-1.9.262-2.343.435a3.904 3.904 0 0 0-1.451.943c-.42.408-.742.903-.945 1.451-.172.445-.378 1.113-.434 2.344-.06 1.33-.074 1.73-.074 5.1 0 3.368.013 3.768.074 5.098.056 1.23.262 1.899.434 2.343.203.549.525 1.044.944 1.451.407.42.903.742 1.451.944.445.173 1.113.379 2.344.435 1.33.06 1.729.073 5.099.073s3.769-.012 5.099-.073c1.23-.056 1.899-.262 2.343-.435a4.179 4.179 0 0 0 2.395-2.395c.173-.444.378-1.112.435-2.343.06-1.33.073-1.73.073-5.099 0-3.37-.013-3.769-.073-5.1-.056-1.23-.262-1.898-.435-2.343Zm-9.837 13.923a6.48 6.48 0 1 1 0-12.96 6.48 6.48 0 0 1 0 12.96Zm6.736-11.702a1.514 1.514 0 1 1 0-3.029 1.514 1.514 0 0 1 0 3.029Zm0 0" fill="#f8f8f8" fill-rule="evenodd" data-name="Path 20"/><path d="M1758.024 2628.048c-12.135 0-21.976 9.84-21.976 21.976 0 12.135 9.84 21.976 21.976 21.976 12.135 0 21.976-9.841 21.976-21.976s-9.84-21.976-21.976-21.976Zm12.543 27.178c-.061 1.344-.275 2.26-.587 3.064a6.452 6.452 0 0 1-3.69 3.69c-.803.312-1.72.525-3.063.587-1.346.061-1.776.076-5.203.076-3.427 0-3.857-.015-5.203-.076-1.343-.062-2.26-.275-3.063-.587a6.182 6.182 0 0 1-2.235-1.455 6.185 6.185 0 0 1-1.455-2.235c-.312-.803-.526-1.72-.587-3.063-.062-1.346-.076-1.776-.076-5.203 0-3.427.014-3.857.076-5.203.06-1.343.274-2.26.586-3.063a6.182 6.182 0 0 1 1.456-2.235 6.181 6.181 0 0 1 2.235-1.456c.803-.312 1.72-.525 3.063-.586 1.346-.062 1.776-.076 5.203-.076 3.427 0 3.857.014 5.202.076 1.344.061 2.26.274 3.064.586a6.186 6.186 0 0 1 2.235 1.456 6.183 6.183 0 0 1 1.455 2.235c.313.803.526 1.72.587 3.063.062 1.346.076 1.776.076 5.203 0 3.427-.014 3.857-.076 5.202Zm0 0" fill="#f8f8f8" fill-rule="evenodd" data-name="Path 21"/></g></svg>